<svg width="293" height="35" viewBox="0 0 293 35" fill="none" xmlns="http://www.w3.org/2000/svg">
<path d="M31.8203 11.6875C31.8203 13.2969 31.5547 14.7188 31.0234 15.9531C30.5078 17.1875 29.6875 18.2266 28.5625 19.0703C27.4375 19.9141 25.9844 20.5547 24.2031 20.9922C22.4375 21.4141 20.3047 21.625 17.8047 21.625H3.34375V34H0.414062V1.79688H17.8047C20.3047 1.79688 22.4375 2.01562 24.2031 2.45312C25.9844 2.875 27.4375 3.5 28.5625 4.32812C29.6875 5.15625 30.5078 6.1875 31.0234 7.42188C31.5547 8.65625 31.8203 10.0781 31.8203 11.6875ZM28.7969 11.6875C28.7969 10.1562 28.5391 8.92188 28.0234 7.98438C27.5234 7.04688 26.7422 6.32812 25.6797 5.82812C24.6328 5.3125 23.2969 4.96875 21.6719 4.79688C20.0625 4.625 18.1484 4.53906 15.9297 4.53906H3.34375V18.8828H15.9297C16.7891 18.8828 17.7031 18.8906 18.6719 18.9062C19.6562 18.9062 20.625 18.8594 21.5781 18.7656C22.5312 18.6562 23.4375 18.4766 24.2969 18.2266C25.1719 17.9609 25.9375 17.5625 26.5938 17.0312C27.2656 16.5 27.7969 15.8047 28.1875 14.9453C28.5938 14.0859 28.7969 13 28.7969 11.6875ZM63.6016 4.28125C63.1484 4.14062 62.5156 3.99219 61.7031 3.83594C60.9062 3.66406 59.875 3.57812 58.6094 3.57812C56.8594 3.57812 55.2109 3.79687 53.6641 4.23438C52.1328 4.65625 50.7031 5.23438 49.375 5.96875C48.0625 6.70312 46.8438 7.5625 45.7188 8.54688C44.5938 9.51562 43.5781 10.5469 42.6719 11.6406V34H39.7422V1.79688H42.6719V8.35938C43.7188 7.28125 44.8516 6.28906 46.0703 5.38281C47.3047 4.47656 48.6016 3.70312 49.9609 3.0625C51.3203 2.40625 52.7422 1.89844 54.2266 1.53906C55.7266 1.16406 57.2734 0.976562 58.8672 0.976562C59.4141 0.976562 59.9062 0.992188 60.3438 1.02344C60.7812 1.03906 61.1797 1.07031 61.5391 1.11719C61.9141 1.14844 62.2656 1.1875 62.5938 1.23438C62.9219 1.28125 63.2578 1.33594 63.6016 1.39844V4.28125ZM107.688 17.9219C107.688 20.8125 107.164 23.3125 106.117 25.4219C105.07 27.5156 103.633 29.25 101.805 30.625C99.9766 31.9844 97.8203 32.9922 95.3359 33.6484C92.8516 34.3047 90.1719 34.6328 87.2969 34.6328C84.4062 34.6328 81.7109 34.3047 79.2109 33.6484C76.7109 32.9922 74.5391 31.9844 72.6953 30.625C70.8516 29.25 69.4062 27.5156 68.3594 25.4219C67.3125 23.3125 66.7891 20.8125 66.7891 17.9219C66.7891 16 67.0312 14.2578 67.5156 12.6953C68 11.1172 68.6797 9.71094 69.5547 8.47656C70.4297 7.22656 71.4844 6.14844 72.7188 5.24219C73.9688 4.33594 75.3516 3.58594 76.8672 2.99219C78.3984 2.38281 80.0391 1.9375 81.7891 1.65625C83.5391 1.35937 85.375 1.21094 87.2969 1.21094C90.1719 1.21094 92.8516 1.53906 95.3359 2.19531C97.8203 2.85156 99.9766 3.86719 101.805 5.24219C103.633 6.60156 105.07 8.33594 106.117 10.4453C107.164 12.5391 107.688 15.0312 107.688 17.9219ZM104.664 17.9219C104.664 15.6406 104.289 13.625 103.539 11.875C102.805 10.125 101.711 8.65625 100.258 7.46875C98.8047 6.26563 96.9922 5.35938 94.8203 4.75C92.6641 4.125 90.1562 3.8125 87.2969 3.8125C84.4375 3.8125 81.9141 4.125 79.7266 4.75C77.5547 5.375 75.7344 6.28906 74.2656 7.49219C72.7969 8.67969 71.6875 10.1562 70.9375 11.9219C70.1875 13.6719 69.8125 15.6719 69.8125 17.9219C69.8125 20.2031 70.1875 22.2188 70.9375 23.9688C71.6875 25.7188 72.7969 27.1953 74.2656 28.3984C75.7344 29.5859 77.5547 30.4922 79.7266 31.1172C81.9141 31.7266 84.4375 32.0312 87.2969 32.0312C90.1562 32.0312 92.6641 31.7266 94.8203 31.1172C96.9922 30.4922 98.8047 29.5859 100.258 28.3984C101.711 27.1953 102.805 25.7188 103.539 23.9688C104.289 22.2188 104.664 20.2031 104.664 17.9219ZM133.961 23.6875C133.961 25.4688 133.648 27.0312 133.023 28.375C132.398 29.7031 131.523 30.8125 130.398 31.7031C129.273 32.5938 127.93 33.2656 126.367 33.7188C124.805 34.1562 123.078 34.375 121.188 34.375C120.016 34.375 118.938 34.3203 117.953 34.2109C116.969 34.1172 116.055 33.9922 115.211 33.8359C114.383 33.6797 113.609 33.5156 112.891 33.3438C112.188 33.1562 111.516 32.9766 110.875 32.8047V29.7812C111.531 30.0312 112.211 30.2734 112.914 30.5078C113.617 30.7422 114.406 30.9531 115.281 31.1406C116.156 31.3281 117.133 31.4766 118.211 31.5859C119.305 31.6953 120.555 31.75 121.961 31.75C123.227 31.75 124.406 31.5781 125.5 31.2344C126.609 30.875 127.57 30.3594 128.383 29.6875C129.211 29 129.859 28.1719 130.328 27.2031C130.797 26.2188 131.031 25.0938 131.031 23.8281V1.79688H133.961V23.6875ZM177.109 32.3125C175.797 32.7188 174.578 33.0703 173.453 33.3672C172.328 33.6484 171.219 33.875 170.125 34.0469C169.031 34.2344 167.914 34.3672 166.773 34.4453C165.648 34.5391 164.406 34.5859 163.047 34.5859C159.891 34.5859 157.039 34.2031 154.492 33.4375C151.945 32.6719 149.773 31.5781 147.977 30.1562C146.195 28.7188 144.82 26.9844 143.852 24.9531C142.883 22.9219 142.398 20.6406 142.398 18.1094C142.398 15.6562 142.859 13.4062 143.781 11.3594C144.719 9.3125 146.023 7.55469 147.695 6.08594C149.367 4.61719 151.367 3.47656 153.695 2.66406C156.023 1.85156 158.594 1.44531 161.406 1.44531C164.328 1.44531 166.93 1.83594 169.211 2.61719C171.492 3.39844 173.414 4.51562 174.977 5.96875C176.539 7.42188 177.727 9.1875 178.539 11.2656C179.352 13.3281 179.758 15.6562 179.758 18.25V18.9766H145.422C145.594 20.9766 146.094 22.7812 146.922 24.3906C147.75 26 148.922 27.3672 150.438 28.4922C151.969 29.6172 153.844 30.4844 156.062 31.0938C158.297 31.6875 160.898 31.9844 163.867 31.9844C165.133 31.9844 166.414 31.8984 167.711 31.7266C169.008 31.5547 170.25 31.3281 171.438 31.0469C172.625 30.75 173.711 30.4219 174.695 30.0625C175.68 29.6875 176.484 29.3047 177.109 28.9141V32.3125ZM176.875 16.4219C176.766 14.7812 176.398 13.2188 175.773 11.7344C175.148 10.2344 174.211 8.91406 172.961 7.77344C171.727 6.63281 170.148 5.72656 168.227 5.05469C166.32 4.38281 164.031 4.04688 161.359 4.04688C158.844 4.04688 156.641 4.38281 154.75 5.05469C152.859 5.72656 151.258 6.63281 149.945 7.77344C148.633 8.89844 147.602 10.2109 146.852 11.7109C146.102 13.1953 145.625 14.7656 145.422 16.4219H176.875ZM221.359 31.4453C220.234 31.9141 219.117 32.3438 218.008 32.7344C216.914 33.125 215.773 33.4609 214.586 33.7422C213.398 34.0234 212.148 34.2422 210.836 34.3984C209.523 34.5547 208.094 34.6328 206.547 34.6328C204.641 34.6328 202.805 34.4766 201.039 34.1641C199.289 33.8516 197.656 33.3828 196.141 32.7578C194.625 32.1328 193.25 31.3594 192.016 30.4375C190.781 29.5 189.719 28.4141 188.828 27.1797C187.953 25.9453 187.273 24.5547 186.789 23.0078C186.32 21.4609 186.086 19.7656 186.086 17.9219C186.086 16.0781 186.32 14.3828 186.789 12.8359C187.273 11.2891 187.953 9.89844 188.828 8.66406C189.719 7.42969 190.781 6.35156 192.016 5.42969C193.25 4.49219 194.625 3.71094 196.141 3.08594C197.656 2.46094 199.289 1.99219 201.039 1.67969C202.789 1.36719 204.625 1.21094 206.547 1.21094C208.094 1.21094 209.523 1.28906 210.836 1.44531C212.148 1.60156 213.398 1.82031 214.586 2.10156C215.773 2.38281 216.914 2.71875 218.008 3.10938C219.117 3.48438 220.234 3.90625 221.359 4.375V7.89062C220.469 7.32812 219.516 6.79687 218.5 6.29688C217.484 5.79688 216.383 5.35938 215.195 4.98438C214.023 4.60938 212.766 4.3125 211.422 4.09375C210.078 3.875 208.641 3.76562 207.109 3.76562C204.016 3.76562 201.336 4.10156 199.07 4.77344C196.805 5.44531 194.93 6.39844 193.445 7.63281C191.977 8.85156 190.883 10.3359 190.164 12.0859C189.461 13.8203 189.109 15.7656 189.109 17.9219C189.109 20.0781 189.461 22.0234 190.164 23.7578C190.883 25.4922 191.977 26.9766 193.445 28.2109C194.93 29.4297 196.805 30.375 199.07 31.0469C201.336 31.7031 204.016 32.0312 207.109 32.0312C208.641 32.0312 210.086 31.9219 211.445 31.7031C212.82 31.4844 214.102 31.1875 215.289 30.8125C216.492 30.4375 217.594 30.0078 218.594 29.5234C219.609 29.0234 220.531 28.5 221.359 27.9531V31.4453ZM243.109 4.46875V34H240.203V4.46875H225.555V1.79688H257.758V4.46875H243.109ZM290.102 6.55469C289.492 6.25781 288.789 5.94531 287.992 5.61719C287.195 5.27344 286.281 4.96875 285.25 4.70312C284.234 4.4375 283.086 4.21875 281.805 4.04688C280.523 3.85938 279.102 3.76562 277.539 3.76562C275.648 3.76562 273.961 3.875 272.477 4.09375C271.008 4.3125 269.758 4.65625 268.727 5.125C267.711 5.57812 266.93 6.15625 266.383 6.85938C265.852 7.5625 265.586 8.39844 265.586 9.36719C265.586 10.1797 265.836 10.8906 266.336 11.5C266.852 12.1094 267.539 12.6484 268.398 13.1172C269.273 13.5859 270.289 14.0156 271.445 14.4062C272.617 14.7812 273.852 15.1406 275.148 15.4844C276.461 15.8125 277.805 16.1484 279.18 16.4922C280.57 16.8359 281.914 17.2109 283.211 17.6172C284.523 18.0078 285.758 18.4531 286.914 18.9531C288.086 19.4375 289.102 20.0078 289.961 20.6641C290.836 21.3203 291.523 22.0703 292.023 22.9141C292.539 23.7578 292.797 24.7344 292.797 25.8438C292.797 27.0469 292.57 28.1016 292.117 29.0078C291.664 29.8984 291.047 30.6719 290.266 31.3281C289.5 31.9688 288.594 32.5078 287.547 32.9453C286.516 33.3672 285.406 33.7031 284.219 33.9531C283.047 34.2031 281.828 34.375 280.562 34.4688C279.312 34.5781 278.078 34.6328 276.859 34.6328C274.062 34.6328 271.523 34.4297 269.242 34.0234C266.977 33.6172 264.812 33.0625 262.75 32.3594V28.7734C264.875 30.0391 267.117 30.9062 269.477 31.375C271.852 31.8438 274.344 32.0781 276.953 32.0781C278.797 32.0781 280.5 31.9688 282.062 31.75C283.625 31.5312 284.977 31.1875 286.117 30.7188C287.258 30.2344 288.141 29.6094 288.766 28.8438C289.406 28.0781 289.727 27.1406 289.727 26.0312C289.727 25.1406 289.469 24.3594 288.953 23.6875C288.453 23.0156 287.766 22.4297 286.891 21.9297C286.031 21.4141 285.016 20.9609 283.844 20.5703C282.688 20.1797 281.461 19.8203 280.164 19.4922C278.867 19.1484 277.523 18.8203 276.133 18.5078C274.758 18.1797 273.422 17.8281 272.125 17.4531C270.828 17.0781 269.594 16.6562 268.422 16.1875C267.266 15.7188 266.25 15.1719 265.375 14.5469C264.516 13.9062 263.828 13.1719 263.312 12.3438C262.812 11.5156 262.562 10.5547 262.562 9.46094C262.562 8.38281 262.766 7.42969 263.172 6.60156C263.578 5.75781 264.133 5.03125 264.836 4.42188C265.555 3.8125 266.391 3.30469 267.344 2.89844C268.297 2.47656 269.312 2.14844 270.391 1.91406C271.484 1.66406 272.617 1.48438 273.789 1.375C274.961 1.26562 276.117 1.21094 277.258 1.21094C278.508 1.21094 279.688 1.26562 280.797 1.375C281.922 1.48438 283 1.63281 284.031 1.82031C285.078 1.99219 286.094 2.19531 287.078 2.42969C288.078 2.66406 289.086 2.91406 290.102 3.17969V6.55469Z" fill="black"/>
</svg>
