<svg width="449" height="49" viewBox="0 0 449 49" fill="none" xmlns="http://www.w3.org/2000/svg">
<path d="M49.564 23.6089L50.5082 23.9383L50.5093 23.9349L49.564 23.6089ZM46.3906 28.4834L47.0753 29.2122L47.0757 29.2119L46.3906 28.4834ZM40.7637 31.6567L40.4501 30.7072L40.7637 31.6567ZM12.1709 32.8018V31.8018H11.1709V32.8018H12.1709ZM12.1709 47V48H13.1709V47H12.1709ZM0.0336914 47H-0.966309V48H0.0336914V47ZM0.0336914 2.0498V1.0498H-0.966309V2.0498H0.0336914ZM40.7637 3.19482L40.4501 4.14443L40.4582 4.14704L40.7637 3.19482ZM46.3906 6.36816L45.7001 7.09152L45.7058 7.09687L45.7114 7.10213L46.3906 6.36816ZM37.8193 14.9067L36.8819 15.2549L36.888 15.2713L36.8947 15.2875L37.8193 14.9067ZM36.3799 13.042L35.8011 13.8575L36.3799 13.042ZM33.73 11.9951L33.5151 12.9718L33.5245 12.9738L33.5339 12.9757L33.73 11.9951ZM12.1709 11.6353V10.6353H11.1709V11.6353H12.1709ZM12.1709 23.2163H11.1709V24.2163H12.1709V23.2163ZM33.73 22.9546L33.888 23.942L33.8976 23.9405L33.9071 23.9388L33.73 22.9546ZM36.3799 22.0059L36.922 22.8462L36.9314 22.8401L36.9407 22.8338L36.3799 22.0059ZM37.8193 20.2393L36.8988 19.8487L36.8937 19.8607L36.8889 19.8727L37.8193 20.2393ZM49.5454 17.3931C49.5454 19.5416 49.2327 21.502 48.6186 23.2829L50.5093 23.9349C51.2038 21.9208 51.5454 19.7373 51.5454 17.3931H49.5454ZM48.6198 23.2795C48.019 25.0017 47.0508 26.49 45.7056 27.7549L47.0757 29.2119C48.653 27.7288 49.8003 25.9674 50.5082 23.9383L48.6198 23.2795ZM45.7059 27.7546C44.3944 28.9866 42.6551 29.9791 40.4501 30.7072L41.0772 32.6063C43.4959 31.8077 45.5079 30.6846 47.0753 29.2122L45.7059 27.7546ZM40.4501 30.7072C38.2686 31.4275 35.5676 31.8018 32.3232 31.8018V33.8018C35.7091 33.8018 38.635 33.4127 41.0772 32.6063L40.4501 30.7072ZM32.3232 31.8018H12.1709V33.8018H32.3232V31.8018ZM11.1709 32.8018V47H13.1709V32.8018H11.1709ZM12.1709 46H0.0336914V48H12.1709V46ZM1.03369 47V2.0498H-0.966309V47H1.03369ZM0.0336914 3.0498H32.3232V1.0498H0.0336914V3.0498ZM32.3232 3.0498C35.5676 3.0498 38.2686 3.42408 40.4501 4.1444L41.0772 2.24525C38.635 1.43887 35.7091 1.0498 32.3232 1.0498V3.0498ZM40.4582 4.14704C42.6572 4.85237 44.3915 5.84236 45.7001 7.09152L47.0811 5.64481C45.5108 4.14592 43.4938 3.02035 41.0691 2.24261L40.4582 4.14704ZM45.7114 7.10213C47.0529 8.34345 48.0195 9.81856 48.6198 11.5393L50.5082 10.8806C49.7998 8.85006 48.6509 7.0973 47.0698 5.6342L45.7114 7.10213ZM48.6198 11.5393C49.2326 13.2962 49.5454 15.2443 49.5454 17.3931H51.5454C51.5454 15.049 51.2039 12.875 50.5082 10.8806L48.6198 11.5393ZM39.2773 17.5894C39.2773 16.4498 39.1117 15.4191 38.744 14.526L36.8947 15.2875C37.1376 15.8775 37.2773 16.6351 37.2773 17.5894H39.2773ZM38.7568 14.5586C38.402 13.6033 37.7953 12.8203 36.9586 12.2265L35.8011 13.8575C36.3166 14.2233 36.6696 14.6834 36.8819 15.2549L38.7568 14.5586ZM36.9586 12.2265C36.136 11.6427 35.1098 11.2513 33.9261 11.0145L33.5339 12.9757C34.5312 13.1752 35.2716 13.4817 35.8011 13.8575L36.9586 12.2265ZM33.9448 11.0185C32.761 10.758 31.3426 10.6353 29.7061 10.6353V12.6353C31.2538 12.6353 32.518 12.7524 33.5151 12.9718L33.9448 11.0185ZM29.7061 10.6353H12.1709V12.6353H29.7061V10.6353ZM11.1709 11.6353V23.2163H13.1709V11.6353H11.1709ZM12.1709 24.2163H29.7061V22.2163H12.1709V24.2163ZM29.7061 24.2163C31.3301 24.2163 32.728 24.1276 33.888 23.942L33.572 21.9671C32.551 22.1305 31.2662 22.2163 29.7061 22.2163V24.2163ZM33.9071 23.9388C35.0818 23.7273 36.1016 23.3755 36.922 22.8462L35.8378 21.1656C35.306 21.5086 34.5592 21.7893 33.5528 21.9704L33.9071 23.9388ZM36.9407 22.8338C37.7739 22.2694 38.3881 21.5238 38.7497 20.6058L36.8889 19.8727C36.6835 20.3942 36.3381 20.8263 35.819 21.1779L36.9407 22.8338ZM38.7399 20.6298C39.1122 19.7523 39.2773 18.7274 39.2773 17.5894H37.2773C37.2773 18.545 37.1372 19.2867 36.8988 19.8487L38.7399 20.6298ZM101.973 12.2241L101.657 13.1728L102.973 13.6115V12.2241H101.973ZM100.534 11.7988L100.228 12.7509L100.248 12.7573L100.268 12.7628L100.534 11.7988ZM98.3745 11.2427L98.144 12.2158L98.1562 12.2186L98.1685 12.2212L98.3745 11.2427ZM95.6265 10.752L95.4943 11.7432L95.4971 11.7436L95.6265 10.752ZM86.4663 11.3735L86.7351 12.3368L86.7425 12.3346L86.4663 11.3735ZM81.1992 13.5L81.6698 14.3824L81.6789 14.3774L81.1992 13.5ZM76.6191 16.5098L77.2423 17.2918L77.2438 17.2906L76.6191 16.5098ZM72.7588 19.9448L72.0517 19.2377L71.7588 19.5306V19.9448H72.7588ZM72.7588 47V48H73.7588V47H72.7588ZM60.6216 47H59.6216V48H60.6216V47ZM60.6216 2.0498V1.0498H59.6216V2.0498H60.6216ZM72.7588 2.0498H73.7588V1.0498H72.7588V2.0498ZM72.7588 9.34521H71.7588V11.3392L73.3569 10.1466L72.7588 9.34521ZM77.2407 6.20459L77.7899 7.0403L77.7927 7.03844L77.2407 6.20459ZM82.0498 3.48926L81.6263 2.58336L81.6217 2.58552L82.0498 3.48926ZM87.3496 1.62451L87.5895 2.59538L87.6002 2.59261L87.3496 1.62451ZM95.6265 1.03564L95.519 2.02985L95.5334 2.03141L95.5478 2.03254L95.6265 1.03564ZM98.0146 1.29736L97.8732 2.28732L97.8771 2.28786L98.0146 1.29736ZM101.973 2.0498H102.973V1.27721L102.226 1.08219L101.973 2.0498ZM102.289 11.2754C101.937 11.1579 101.437 11.0106 100.8 10.8348L100.268 12.7628C100.896 12.936 101.355 13.0722 101.657 13.1728L102.289 11.2754ZM100.84 10.8468C100.188 10.6372 99.4331 10.4436 98.5805 10.2641L98.1685 12.2212C98.9735 12.3907 99.6583 12.5678 100.228 12.7509L100.84 10.8468ZM98.605 10.2696C97.7373 10.0641 96.787 9.89485 95.7558 9.76035L95.4971 11.7436C96.4725 11.8708 97.3541 12.0287 98.144 12.2158L98.605 10.2696ZM95.7586 9.76073C94.731 9.6237 93.6726 9.55566 92.584 9.55566V11.5557C93.5892 11.5557 94.5591 11.6185 95.4943 11.7432L95.7586 9.76073ZM92.584 9.55566C90.3192 9.55566 88.1862 9.83884 86.1901 10.4124L86.7425 12.3346C88.5413 11.8177 90.4868 11.5557 92.584 11.5557V9.55566ZM86.1975 10.4103C84.2518 10.9533 82.425 11.6902 80.7195 12.6226L81.6789 14.3774C83.2449 13.5213 84.9295 12.8406 86.7351 12.3367L86.1975 10.4103ZM80.7286 12.6176C79.0397 13.5184 77.4612 14.5555 75.9944 15.7289L77.2438 17.2906C78.6123 16.1958 80.0873 15.2264 81.6698 14.3824L80.7286 12.6176ZM75.9959 15.7277C74.5728 16.8618 73.2578 18.0316 72.0517 19.2377L73.4659 20.6519C74.6153 19.5025 75.8738 18.3824 77.2423 17.2918L75.9959 15.7277ZM71.7588 19.9448V47H73.7588V19.9448H71.7588ZM72.7588 46H60.6216V48H72.7588V46ZM61.6216 47V2.0498H59.6216V47H61.6216ZM60.6216 3.0498H72.7588V1.0498H60.6216V3.0498ZM71.7588 2.0498V9.34521H73.7588V2.0498H71.7588ZM73.3569 10.1466C74.8021 9.06808 76.2798 8.03264 77.7899 7.0403L76.6915 5.36888C75.1482 6.38305 73.638 7.44136 72.1607 8.54378L73.3569 10.1466ZM77.7927 7.03844C79.3021 6.03926 80.8638 5.15757 82.4779 4.393L81.6217 2.58552C79.9207 3.39125 78.2763 4.31979 76.6887 5.37074L77.7927 7.03844ZM82.4733 4.39514C84.092 3.63837 85.7969 3.03819 87.5895 2.59532L87.1098 0.653701C85.1946 1.12685 83.3664 1.76983 81.6263 2.58338L82.4733 4.39514ZM87.6002 2.59261C89.3658 2.13563 91.244 1.90479 93.2383 1.90479V-0.0952148C91.0887 -0.0952148 89.0411 0.153758 87.099 0.656412L87.6002 2.59261ZM93.2383 1.90479C93.9863 1.90479 94.7465 1.94634 95.519 2.02985L95.7339 0.0414375C94.8925 -0.0495318 94.0605 -0.0952148 93.2383 -0.0952148V1.90479ZM95.5478 2.03254C96.3572 2.09644 97.1322 2.18146 97.8732 2.28731L98.1561 0.307414C97.3704 0.195169 96.5533 0.105705 95.7052 0.0387464L95.5478 2.03254ZM97.8771 2.28786C98.6472 2.39482 99.3602 2.51197 100.017 2.63901L100.397 0.675447C99.7007 0.540762 98.9524 0.418004 98.1522 0.306871L97.8771 2.28786ZM100.017 2.63901C100.678 2.76704 101.245 2.89336 101.721 3.01742L102.226 1.08219C101.698 0.94453 101.087 0.809135 100.397 0.675447L100.017 2.63901ZM100.973 2.0498V12.2241H102.973V2.0498H100.973ZM165.734 34.7974L166.635 35.2312L166.637 35.2286L165.734 34.7974ZM159.649 42.1909L159.048 41.3917L159.649 42.1909ZM150.031 46.7056L150.29 47.6716L150.293 47.6706L150.031 46.7056ZM124.645 46.7056L124.382 47.6706L124.389 47.6724L124.645 46.7056ZM108.843 34.7974L107.944 35.234L107.945 35.2366L108.843 34.7974ZM108.843 14.3506L109.742 14.7898L109.743 14.7872L108.843 14.3506ZM124.645 2.44238L124.902 3.40881L124.905 3.40778L124.645 2.44238ZM150.031 2.44238L149.768 3.40704L149.774 3.4088L150.031 2.44238ZM165.734 14.3506L164.832 14.7818L164.833 14.7844L165.734 14.3506ZM154.775 19.5522L153.82 19.8498L153.823 19.8573L153.825 19.8647L154.775 19.5522ZM151.929 15.0376L151.227 15.7505L151.233 15.756L151.929 15.0376ZM130.926 11.1445L131.122 12.1252L131.133 12.1228L130.926 11.1445ZM122.714 15.103L123.413 15.8187L123.421 15.8101L122.714 15.103ZM120.522 18.0146L121.405 18.4843L121.409 18.4766L120.522 18.0146ZM119.345 21.2534L118.366 21.0465L118.365 21.0537L118.363 21.061L119.345 21.2534ZM119.345 27.9272L118.363 28.1161L118.364 28.1252L118.366 28.1342L119.345 27.9272ZM120.522 31.1987L119.636 31.6607L119.64 31.6683L120.522 31.1987ZM126.117 36.4331L125.669 37.3276L125.681 37.3333L126.117 36.4331ZM130.926 38.0034L130.719 38.9818L130.73 38.984L130.926 38.0034ZM151.929 34.0776L151.233 33.3592L151.227 33.3648L151.929 34.0776ZM154.775 29.5957L153.824 29.2869L153.821 29.2946L154.775 29.5957ZM166.861 24.5576C166.861 28.2946 166.175 31.5562 164.832 34.3661L166.637 35.2286C168.129 32.1063 168.861 28.5414 168.861 24.5576H166.861ZM164.833 34.3635C163.486 37.1623 161.561 39.502 159.048 41.3917L160.25 42.9901C163.016 40.9104 165.148 38.3211 166.635 35.2312L164.833 34.3635ZM159.048 41.3917C156.528 43.2875 153.442 44.7427 149.769 45.7405L150.293 47.6706C154.167 46.6183 157.493 45.0638 160.25 42.9901L159.048 41.3917ZM149.773 45.7395C146.121 46.7161 141.99 47.2104 137.371 47.2104V49.2104C142.13 49.2104 146.439 48.7015 150.29 47.6716L149.773 45.7395ZM137.371 47.2104C132.752 47.2104 128.597 46.7162 124.9 45.7388L124.389 47.6724C128.282 48.7014 132.611 49.2104 137.371 49.2104V47.2104ZM124.907 45.7405C121.234 44.7427 118.136 43.2869 115.592 41.3893L114.396 42.9925C117.173 45.0643 120.509 46.6183 124.382 47.6706L124.907 45.7405ZM115.592 41.3893C113.057 39.4985 111.11 37.1576 109.742 34.3582L107.945 35.2366C109.455 38.3258 111.609 40.9139 114.396 42.9925L115.592 41.3893ZM109.743 34.3608C108.38 31.5521 107.684 28.2924 107.684 24.5576H105.684C105.684 28.5435 106.428 32.1104 107.944 35.234L109.743 34.3608ZM107.684 24.5576C107.684 20.8226 108.38 17.5751 109.742 14.7898L107.945 13.9114C106.428 17.0148 105.684 20.5719 105.684 24.5576H107.684ZM109.743 14.7872C111.112 11.9661 113.058 9.61553 115.592 7.72589L114.396 6.12274C111.608 8.2025 109.453 10.8028 107.944 13.914L109.743 14.7872ZM115.592 7.72589C118.134 5.82951 121.23 4.38499 124.901 3.4088L124.388 1.47596C120.513 2.50628 117.175 4.04972 114.396 6.12274L115.592 7.72589ZM124.905 3.40778C128.601 2.4096 132.753 1.90479 137.371 1.90479V-0.0952148C132.61 -0.0952148 128.278 0.425038 124.384 1.47698L124.905 3.40778ZM137.371 1.90479C141.988 1.90479 146.118 2.40966 149.768 3.40702L150.295 1.47775C146.442 0.42498 142.131 -0.0952148 137.371 -0.0952148V1.90479ZM149.774 3.4088C153.445 4.38491 156.529 5.82892 159.048 7.72352L160.25 6.12511C157.492 4.05031 154.163 2.50637 150.288 1.47596L149.774 3.4088ZM159.048 7.72352C161.559 9.61201 163.484 11.9614 164.832 14.7818L166.637 13.9194C165.149 10.8075 163.017 8.20602 160.25 6.12511L159.048 7.72352ZM164.833 14.7844C166.175 17.571 166.861 20.8205 166.861 24.5576H168.861C168.861 20.5741 168.129 17.0188 166.635 13.9168L164.833 14.7844ZM156.593 24.5576C156.593 22.768 156.302 20.9942 155.725 19.2398L153.825 19.8647C154.338 21.4254 154.593 22.9885 154.593 24.5576H156.593ZM155.73 19.2547C155.152 17.4019 154.108 15.7556 152.624 14.3192L151.233 15.756C152.498 16.9804 153.351 18.3439 153.82 19.8498L155.73 19.2547ZM152.63 14.3248C151.145 12.8642 149.151 11.7183 146.699 10.8555L146.035 12.7421C148.294 13.5369 150.008 14.5502 151.227 15.7504L152.63 14.3248ZM146.699 10.8555C144.2 9.97626 141.079 9.55566 137.371 9.55566V11.5557C140.947 11.5557 143.823 11.9638 146.035 12.7421L146.699 10.8555ZM137.371 9.55566C134.877 9.55566 132.657 9.75578 130.719 10.1662L131.133 12.1228C132.902 11.7481 134.979 11.5557 137.371 11.5557V9.55566ZM130.73 10.164C128.809 10.548 127.118 11.0961 125.669 11.8204L126.564 13.6093C127.82 12.9814 129.334 12.4826 131.122 12.1251L130.73 10.164ZM125.669 11.8204C124.237 12.5367 123.011 13.3924 122.007 14.3959L123.421 15.8101C124.25 14.9816 125.292 14.2452 126.564 13.6093L125.669 11.8204ZM122.016 14.3875C121.03 15.3494 120.234 16.4042 119.636 17.5527L121.409 18.4766C121.902 17.5313 122.566 16.645 123.413 15.8186L122.016 14.3875ZM119.64 17.545C119.05 18.6526 118.626 19.8206 118.366 21.0465L120.323 21.4604C120.544 20.418 120.904 19.4268 121.405 18.4843L119.64 17.545ZM118.363 21.061C118.133 22.2342 118.018 23.4 118.018 24.5576H120.018C120.018 23.5342 120.12 22.4972 120.326 21.4458L118.363 21.061ZM118.018 24.5576C118.018 25.7357 118.133 26.9221 118.363 28.1161L120.327 27.7384C120.12 26.6641 120.018 25.6042 120.018 24.5576H118.018ZM118.366 28.1342C118.625 29.3587 119.049 30.5348 119.636 31.6607L121.409 30.7368C120.905 29.7689 120.544 28.764 120.323 27.7203L118.366 28.1342ZM119.64 31.6683C120.238 32.7932 121.034 33.8343 122.016 34.7932L123.413 33.3621C122.563 32.5325 121.897 31.6544 121.405 30.7291L119.64 31.6683ZM122.016 34.7932C123.018 35.7714 124.241 36.6133 125.669 37.3275L126.564 35.5387C125.288 34.9007 124.243 34.1723 123.413 33.3621L122.016 34.7932ZM125.681 37.3333C127.122 38.0305 128.805 38.5766 130.719 38.9817L131.133 37.0251C129.339 36.6451 127.816 36.1443 126.552 35.5329L125.681 37.3333ZM130.73 38.984C132.664 39.3708 134.88 39.5596 137.371 39.5596V37.5596C134.976 37.5596 132.896 37.3776 131.122 37.0228L130.73 38.984ZM137.371 39.5596C141.079 39.5596 144.2 39.139 146.699 38.2597L146.035 36.3731C143.823 37.1514 140.947 37.5596 137.371 37.5596V39.5596ZM146.699 38.2597C149.151 37.3969 151.145 36.2511 152.63 34.7905L151.227 33.3648C150.008 34.565 148.294 35.5783 146.035 36.3731L146.699 38.2597ZM152.624 34.7961C154.105 33.362 155.15 31.7282 155.728 29.8968L153.821 29.2946C153.353 30.7783 152.5 32.1325 151.233 33.3592L152.624 34.7961ZM155.726 29.9045C156.302 28.1306 156.593 26.3471 156.593 24.5576H154.593C154.593 26.1268 154.338 27.7021 153.824 29.2869L155.726 29.9045ZM209.998 38.1016L209.087 37.6877L209.084 37.6954L209.998 38.1016ZM205.745 43.4341L205.148 42.6318L205.143 42.6352L205.745 43.4341ZM198.907 46.542L199.142 47.514L199.15 47.5121L198.907 46.542ZM184.611 47.2617L184.712 46.2667L184.699 46.2656L184.611 47.2617ZM175.222 45.9204L175.013 46.8984L175.022 46.9004L175.032 46.9022L175.222 45.9204ZM171.885 45.1353H170.885V45.9023L171.626 46.1011L171.885 45.1353ZM171.885 34.6011L172.26 33.6741L170.885 33.1175V34.6011H171.885ZM174.895 35.7461L174.556 36.687L174.564 36.69L174.573 36.6929L174.895 35.7461ZM178.526 36.7603L178.302 37.7349L178.306 37.7357L178.526 36.7603ZM182.975 37.5127L182.854 38.5054L182.856 38.5056L182.975 37.5127ZM193.64 37.1201L193.952 38.0703L193.961 38.0673L193.64 37.1201ZM197.042 35.1572L197.74 35.8735L197.75 35.8643L197.042 35.1572ZM199.365 2.0498V1.0498H198.365V2.0498H199.365ZM211.47 2.0498H212.47V1.0498H211.47V2.0498ZM210.47 30.3809C210.47 33.262 209.996 35.6877 209.087 37.6878L210.908 38.5154C211.962 36.1971 212.47 33.4757 212.47 30.3809H210.47ZM209.084 37.6954C208.193 39.6993 206.884 41.3398 205.148 42.6318L206.342 44.2363C208.357 42.7367 209.883 40.8222 210.911 38.5077L209.084 37.6954ZM205.143 42.6352C203.416 43.936 201.265 44.9218 198.665 45.5718L199.15 47.5121C201.959 46.8099 204.366 45.7238 206.346 44.233L205.143 42.6352ZM198.672 45.57C196.061 46.2018 193.056 46.5234 189.649 46.5234V48.5234C193.177 48.5234 196.345 48.1908 199.142 47.514L198.672 45.57ZM189.649 46.5234C188.049 46.5234 186.403 46.4381 184.712 46.2668L184.51 48.2566C186.265 48.4343 187.978 48.5234 189.649 48.5234V46.5234ZM184.699 46.2656C182.995 46.1146 181.358 45.9207 179.787 45.684L179.489 47.6617C181.103 47.9049 182.781 48.1035 184.523 48.2578L184.699 46.2656ZM179.787 45.684C178.207 45.4458 176.748 45.1973 175.412 44.9386L175.032 46.9022C176.4 47.1669 177.886 47.42 179.489 47.6617L179.787 45.684ZM175.43 44.9424C174.11 44.661 173.016 44.4033 172.144 44.1694L171.626 46.1011C172.542 46.3471 173.673 46.6128 175.013 46.8984L175.43 44.9424ZM172.885 45.1353V34.6011H170.885V45.1353H172.885ZM171.51 35.528C172.439 35.9044 173.455 36.2907 174.556 36.687L175.233 34.8052C174.153 34.4163 173.162 34.0393 172.26 33.6741L171.51 35.528ZM174.573 36.6929C175.701 37.0764 176.944 37.4233 178.302 37.7349L178.75 35.7856C177.446 35.4865 176.269 35.1573 175.216 34.7993L174.573 36.6929ZM178.306 37.7357C179.696 38.0496 181.213 38.3057 182.854 38.5054L183.096 36.52C181.51 36.3271 180.06 36.0816 178.746 35.7848L178.306 37.7357ZM182.856 38.5056C184.538 38.7074 186.378 38.8071 188.373 38.8071V36.8071C186.443 36.8071 184.684 36.7106 183.094 36.5198L182.856 38.5056ZM188.373 38.8071C190.552 38.8071 192.422 38.5723 193.952 38.0703L193.328 36.17C192.067 36.5839 190.425 36.8071 188.373 36.8071V38.8071ZM193.961 38.0673C195.484 37.5517 196.759 36.8299 197.74 35.8735L196.345 34.441C195.625 35.1421 194.632 35.7288 193.32 36.1729L193.961 38.0673ZM197.75 35.8643C198.714 34.9001 199.4 33.7665 199.798 32.4743L197.886 31.8861C197.586 32.8621 197.072 33.7132 196.335 34.4501L197.75 35.8643ZM199.798 32.4743C200.18 31.2326 200.365 29.8889 200.365 28.4507H198.365C198.365 29.7169 198.202 30.8595 197.886 31.8861L199.798 32.4743ZM200.365 28.4507V2.0498H198.365V28.4507H200.365ZM199.365 3.0498H211.47V1.0498H199.365V3.0498ZM210.47 2.0498V30.3809H212.47V2.0498H210.47ZM275.362 44.7754L275.676 45.7246L276.362 45.4975V44.7754H275.362ZM264.304 47.3926L264.164 46.4025L264.157 46.4035L264.304 47.3926ZM239.932 46.6401L239.662 47.6031L239.669 47.6049L239.932 46.6401ZM224.294 15.3647L223.392 14.9338L223.39 14.9367L224.294 15.3647ZM230.183 7.7749L230.828 8.53879L230.829 8.53829L230.183 7.7749ZM239.408 2.73682L239.724 3.68551L239.73 3.68376L239.408 2.73682ZM262.636 2.57324L262.323 3.52317L262.331 3.52552L262.636 2.57324ZM271.371 7.44775L270.705 8.19406L270.708 8.19701L271.371 7.44775ZM277.03 15.4302L276.109 15.818L276.111 15.8233L277.03 15.4302ZM279.059 29.3667V30.3667H280.059V29.3667H279.059ZM234.763 29.3667V28.3667H233.448L233.799 29.6336L234.763 29.3667ZM236.693 33.2598L235.896 33.8645L235.904 33.8737L236.693 33.2598ZM246.082 38.1997L245.882 39.1796L245.884 39.1799L246.082 38.1997ZM260.738 38.4941L260.86 39.4868L260.87 39.4855L260.738 38.4941ZM266.725 37.4146L266.954 38.388L266.965 38.3854L266.725 37.4146ZM271.73 35.9097L271.39 34.9695L271.385 34.9711L271.73 35.9097ZM275.362 34.2739H276.362V32.5149L274.85 33.4146L275.362 34.2739ZM266.987 20.4683V21.4683H268.09L267.982 20.3707L266.987 20.4683ZM265.973 17.0332L265.062 17.447L265.067 17.4571L265.072 17.467L265.973 17.0332ZM263.355 13.7944L263.98 13.0136L263.355 13.7944ZM258.645 11.439L258.335 12.3898L258.344 12.3929L258.645 11.439ZM239.31 14.0234L238.714 13.2203L238.708 13.225L239.31 14.0234ZM234.763 20.4683L233.787 20.2513L233.516 21.4683H234.763V20.4683ZM275.047 43.8261C271.416 45.0295 267.788 45.8878 264.164 46.4025L264.445 48.3826C268.192 47.8505 271.936 46.964 275.676 45.7246L275.047 43.8261ZM264.157 46.4035C260.543 46.9412 256.841 47.2104 253.05 47.2104V49.2104C256.936 49.2104 260.737 48.9344 264.451 48.3817L264.157 46.4035ZM253.05 47.2104C248.212 47.2104 243.93 46.6942 240.195 45.6754L239.669 47.6049C243.61 48.6799 248.074 49.2104 253.05 49.2104V47.2104ZM240.201 45.6772C236.483 44.6361 233.387 43.1488 230.889 41.2337L229.672 42.821C232.409 44.9189 235.747 46.5068 239.662 47.6031L240.201 45.6772ZM230.889 41.2337C228.394 39.3211 226.502 36.9915 225.198 34.2384L223.39 35.0946C224.834 38.1429 226.933 40.7205 229.672 42.821L230.889 41.2337ZM225.198 34.2384C223.895 31.4893 223.233 28.3563 223.233 24.8193H221.233C221.233 28.6105 221.944 32.0423 223.39 35.0946L225.198 34.2384ZM223.233 24.8193C223.233 21.556 223.891 18.5518 225.198 15.7928L223.39 14.9367C221.949 17.9792 221.233 21.278 221.233 24.8193H223.233ZM225.196 15.7957C226.53 13.0041 228.404 10.5868 230.828 8.53879L229.537 7.01102C226.902 9.23775 224.85 11.8804 223.392 14.9338L225.196 15.7957ZM230.829 8.53829C233.271 6.47161 236.23 4.8502 239.724 3.6855L239.092 1.78813C235.389 3.02252 232.198 4.75983 229.537 7.01152L230.829 8.53829ZM239.73 3.68376C243.209 2.5028 247.112 1.90479 251.447 1.90479V-0.0952148C246.928 -0.0952148 242.804 0.528128 239.087 1.78987L239.73 3.68376ZM251.447 1.90479C255.435 1.90479 259.057 2.44847 262.323 3.52314L262.948 1.62334C259.453 0.473403 255.617 -0.0952148 251.447 -0.0952148V1.90479ZM262.331 3.52552C265.613 4.57768 268.399 6.13705 270.705 8.19405L272.036 6.70146C269.501 4.4401 266.463 2.74979 262.941 1.62096L262.331 3.52552ZM270.708 8.19701C273.033 10.2515 274.833 12.7865 276.109 15.8179L277.952 15.0424C276.567 11.7489 274.594 8.96236 272.033 6.6985L270.708 8.19701ZM276.111 15.8233C277.4 18.8394 278.059 22.3437 278.059 26.3569H280.059C280.059 22.126 279.365 18.3458 277.95 15.037L276.111 15.8233ZM278.059 26.3569V29.3667H280.059V26.3569H278.059ZM279.059 28.3667H234.763V30.3667H279.059V28.3667ZM233.799 29.6336C234.226 31.1741 234.926 32.5863 235.896 33.8645L237.489 32.6551C236.671 31.5778 236.085 30.3946 235.726 29.0998L233.799 29.6336ZM235.904 33.8737C236.919 35.1797 238.267 36.2679 239.918 37.1512L240.862 35.3879C239.415 34.6136 238.298 33.6953 237.482 32.6458L235.904 33.8737ZM239.918 37.1512C241.573 38.0372 243.568 38.7077 245.882 39.1795L246.282 37.2199C244.103 36.7757 242.303 36.1594 240.862 35.3879L239.918 37.1512ZM245.884 39.1799C248.236 39.6548 251.01 39.8867 254.195 39.8867V37.8867C251.099 37.8867 248.465 37.6606 246.28 37.2195L245.884 39.1799ZM254.195 39.8867C256.459 39.8867 258.681 39.7535 260.86 39.4867L260.617 37.5016C258.521 37.7582 256.381 37.8867 254.195 37.8867V39.8867ZM260.87 39.4855C263.036 39.1981 265.064 38.8327 266.954 38.388L266.496 36.4411C264.678 36.8688 262.716 37.2231 260.607 37.5028L260.87 39.4855ZM266.965 38.3854C268.847 37.9203 270.552 37.4084 272.076 36.8482L271.385 34.9711C269.943 35.5014 268.311 35.9928 266.485 36.4437L266.965 38.3854ZM272.071 36.8499C273.609 36.2927 274.883 35.7225 275.873 35.1332L274.85 33.4146C274.008 33.9159 272.862 34.4362 271.39 34.9695L272.071 36.8499ZM274.362 34.2739V44.7754H276.362V34.2739H274.362ZM267.982 20.3707C267.86 19.1237 267.483 17.8652 266.874 16.5994L265.072 17.467C265.596 18.5566 265.896 19.5882 265.992 20.5658L267.982 20.3707ZM266.883 16.6194C266.263 15.2548 265.282 14.0551 263.98 13.0136L262.731 14.5753C263.828 15.453 264.592 16.4125 265.062 17.447L266.883 16.6194ZM263.98 13.0136C262.658 11.9561 260.968 11.1215 258.945 10.4851L258.344 12.3929C260.204 12.9778 261.654 13.7135 262.731 14.5753L263.98 13.0136ZM258.954 10.4882C256.881 9.81254 254.347 9.49023 251.382 9.49023V11.4902C254.218 11.4902 256.526 11.8004 258.335 12.3898L258.954 10.4882ZM251.382 9.49023C248.577 9.49023 246.107 9.83753 243.993 10.5578L244.638 12.451C246.493 11.819 248.734 11.4902 251.382 11.4902V9.49023ZM243.993 10.5578C241.933 11.2595 240.167 12.1424 238.714 13.2203L239.906 14.8265C241.157 13.8979 242.728 13.1015 244.638 12.451L243.993 10.5578ZM238.708 13.225C237.303 14.2848 236.178 15.4479 235.36 16.7223L237.044 17.8022C237.709 16.7646 238.657 15.7686 239.912 14.8219L238.708 13.225ZM235.36 16.7223C234.577 17.9434 234.038 19.1216 233.787 20.2513L235.739 20.6852C235.924 19.852 236.344 18.8929 237.044 17.8022L235.36 16.7223ZM234.763 21.4683H266.987V19.4683H234.763V21.4683ZM339.614 43.9248L339.998 44.8479L340.614 44.5915V43.9248H339.614ZM329.93 47.0327L329.717 46.0556L329.705 46.0583L329.93 47.0327ZM324.532 47.916L324.429 46.9213L324.428 46.9214L324.532 47.916ZM305.819 46.7383L305.572 47.7071L305.573 47.7074L305.819 46.7383ZM295.874 42.3218L295.292 43.1347L295.299 43.1398L295.874 42.3218ZM289.396 34.9282L288.51 35.391L288.511 35.3937L289.396 34.9282ZM289.396 14.2197L290.282 14.6852L290.283 14.6825L289.396 14.2197ZM295.874 6.82617L296.452 7.64207L296.453 7.64119L295.874 6.82617ZM305.819 2.37695L305.573 1.40778L305.572 1.40812L305.819 2.37695ZM324.532 1.19922L324.428 2.19379L324.429 2.19391L324.532 1.19922ZM329.93 2.08252L329.705 3.05698L329.717 3.05958L329.93 2.08252ZM339.614 5.19043H340.614V4.52376L339.998 4.26735L339.614 5.19043ZM339.614 16.1172L339.136 16.9957L340.614 17.7994V16.1172H339.614ZM335.688 14.1216L335.246 15.0189L335.258 15.0244L335.688 14.1216ZM331.141 12.3223L330.828 13.2723L330.839 13.2758L331.141 12.3223ZM325.677 11.0137L325.504 11.9986L325.515 12.0004L325.677 11.0137ZM309.451 11.668L309.154 10.7129L309.152 10.7136L309.451 11.668ZM300.258 19.3232L301.198 19.665L301.199 19.6611L300.258 19.3232ZM299.734 28.1235L298.758 28.3405L298.759 28.3444L299.734 28.1235ZM301.043 31.4277L300.179 31.9316L300.184 31.9395L301.043 31.4277ZM312.199 38.0361L312.011 39.0185L312.024 39.0207L312.199 38.0361ZM325.677 38.1016L325.829 39.09L325.84 39.0882L325.677 38.1016ZM335.688 35.0591L336.118 35.962L336.129 35.9563L335.688 35.0591ZM339.614 32.998H340.614V31.2898L339.124 32.1261L339.614 32.998ZM339.229 43.0017C337.682 43.6463 336.125 44.2261 334.558 44.7414L335.182 46.6414C336.799 46.1098 338.405 45.5119 339.998 44.8479L339.229 43.0017ZM334.558 44.7414C333 45.2537 331.386 45.6919 329.717 46.0557L330.143 48.0098C331.877 47.632 333.556 47.176 335.182 46.6414L334.558 44.7414ZM329.705 46.0583C328.048 46.4408 326.289 46.7289 324.429 46.9213L324.635 48.9107C326.57 48.7106 328.41 48.4098 330.155 48.0071L329.705 46.0583ZM324.428 46.9214C322.592 47.1136 320.609 47.2104 318.48 47.2104V49.2104C320.669 49.2104 322.722 49.111 324.636 48.9106L324.428 46.9214ZM318.48 47.2104C313.971 47.2104 309.835 46.7273 306.066 45.7691L305.573 47.7074C309.525 48.7122 313.829 49.2104 318.48 49.2104V47.2104ZM306.067 45.7694C302.327 44.8133 299.127 43.3867 296.449 41.5037L295.299 43.1398C298.204 45.1826 301.634 46.7004 305.572 47.7071L306.067 45.7694ZM296.456 41.5089C293.81 39.6126 291.756 37.2659 290.282 34.4627L288.511 35.3937C290.134 38.4792 292.398 41.0616 295.292 43.1346L296.456 41.5089ZM290.283 34.4654C288.821 31.6658 288.074 28.373 288.074 24.5576H286.074C286.074 28.6374 286.875 32.2584 288.51 35.391L290.283 34.4654ZM288.074 24.5576C288.074 20.742 288.821 17.4615 290.282 14.6852L288.511 13.7543C286.875 16.8666 286.074 20.478 286.074 24.5576H288.074ZM290.283 14.6825C291.757 11.8589 293.81 9.51473 296.452 7.64207L295.296 6.01027C292.399 8.06339 290.133 10.6482 288.51 13.7569L290.283 14.6825ZM296.453 7.64119C299.131 5.73795 302.329 4.30149 306.067 3.34579L305.572 1.40812C301.632 2.41531 298.201 3.945 295.295 6.01115L296.453 7.64119ZM306.066 3.34612C309.835 2.38794 313.971 1.90479 318.48 1.90479V-0.0952148C313.829 -0.0952148 309.525 0.403078 305.573 1.40778L306.066 3.34612ZM318.48 1.90479C320.609 1.90479 322.592 2.00159 324.428 2.19379L324.636 0.20465C322.722 0.00426923 320.669 -0.0952148 318.48 -0.0952148V1.90479ZM324.429 2.19391C326.289 2.38634 328.048 2.67441 329.705 3.05691L330.155 1.10813C328.41 0.705469 326.57 0.404676 324.635 0.204527L324.429 2.19391ZM329.717 3.05958C331.386 3.42332 333 3.8615 334.558 4.3738L335.182 2.47385C333.556 1.93928 331.877 1.48326 330.143 1.10546L329.717 3.05958ZM334.558 4.3738C336.125 4.88909 337.682 5.46895 339.229 6.11351L339.998 4.26735C338.405 3.60331 336.799 3.00544 335.182 2.47385L334.558 4.3738ZM338.614 5.19043V16.1172H340.614V5.19043H338.614ZM340.092 15.2387C338.832 14.5534 337.507 13.8801 336.118 13.2187L335.258 15.0244C336.617 15.6716 337.91 16.3287 339.136 16.9957L340.092 15.2387ZM336.129 13.2243C334.705 12.5232 333.141 11.9053 331.442 11.3687L330.839 13.2758C332.455 13.7861 333.923 14.3678 335.246 15.0188L336.129 13.2243ZM331.453 11.3723C329.74 10.8088 327.868 10.3613 325.84 10.027L325.515 12.0004C327.456 12.3204 329.226 12.7453 330.828 13.2722L331.453 11.3723ZM325.85 10.0288C323.797 9.66776 321.502 9.49023 318.971 9.49023V11.4902C321.412 11.4902 323.588 11.6617 325.504 11.9986L325.85 10.0288ZM318.971 9.49023C315.094 9.49023 311.812 9.88801 309.154 10.7129L309.747 12.623C312.149 11.8776 315.214 11.4902 318.971 11.4902V9.49023ZM309.152 10.7136C306.552 11.5275 304.411 12.631 302.775 14.054L304.087 15.5632C305.461 14.369 307.333 13.3787 309.749 12.6223L309.152 10.7136ZM302.775 14.054C301.155 15.463 299.991 17.107 299.317 18.9854L301.199 19.6611C301.746 18.1372 302.698 16.7714 304.087 15.5632L302.775 14.054ZM299.318 18.9815C298.667 20.7718 298.342 22.6324 298.342 24.5576H300.342C300.342 22.8624 300.627 21.2334 301.198 19.665L299.318 18.9815ZM298.342 24.5576C298.342 25.8305 298.481 27.0919 298.758 28.3405L300.711 27.9066C300.465 26.7997 300.342 25.6838 300.342 24.5576H298.342ZM298.759 28.3444C299.044 29.602 299.518 30.7986 300.179 31.9316L301.907 30.9239C301.346 29.9631 300.948 28.9569 300.71 27.9027L298.759 28.3444ZM300.184 31.9395C300.852 33.061 301.716 34.0876 302.767 35.0213L304.096 33.5265C303.183 32.7154 302.455 31.8446 301.902 30.9159L300.184 31.9395ZM302.767 35.0213C303.842 35.9775 305.159 36.7829 306.698 37.449L307.492 35.6135C306.109 35.0146 304.983 34.3151 304.096 33.5265L302.767 35.0213ZM306.698 37.449C308.24 38.1166 310.014 38.637 312.011 39.0184L312.386 37.0539C310.501 36.6937 308.873 36.2109 307.492 35.6135L306.698 37.449ZM312.024 39.0207C314.058 39.3823 316.376 39.5596 318.971 39.5596V37.5596C316.462 37.5596 314.265 37.3879 312.374 37.0516L312.024 39.0207ZM318.971 39.5596C321.496 39.5596 323.784 39.4046 325.829 39.0899L325.525 37.1132C323.601 37.4092 321.418 37.5596 318.971 37.5596V39.5596ZM325.84 39.0882C327.864 38.7545 329.732 38.319 331.442 37.7793L330.839 35.8721C329.234 36.3792 327.46 36.7943 325.515 37.1149L325.84 39.0882ZM331.442 37.7793C333.137 37.2438 334.697 36.6387 336.118 35.9619L335.258 34.1562C333.931 34.7881 332.459 35.3607 330.839 35.8721L331.442 37.7793ZM336.129 35.9563C337.519 35.2728 338.843 34.5774 340.103 33.87L339.124 32.1261C337.898 32.8145 336.605 33.4931 335.246 34.1618L336.129 35.9563ZM338.614 32.998V43.9248H340.614V32.998H338.614ZM376.124 11.8315V10.8315H375.124V11.8315H376.124ZM376.124 47V48H377.124V47H376.124ZM363.986 47H362.986V48H363.986V47ZM363.986 11.8315H364.986V10.8315H363.986V11.8315ZM344.914 11.8315H343.914V12.8315H344.914V11.8315ZM344.914 2.0498V1.0498H343.914V2.0498H344.914ZM395.229 2.0498H396.229V1.0498H395.229V2.0498ZM395.229 11.8315V12.8315H396.229V11.8315H395.229ZM375.124 11.8315V47H377.124V11.8315H375.124ZM376.124 46H363.986V48H376.124V46ZM364.986 47V11.8315H362.986V47H364.986ZM363.986 10.8315H344.914V12.8315H363.986V10.8315ZM345.914 11.8315V2.0498H343.914V11.8315H345.914ZM344.914 3.0498H395.229V1.0498H344.914V3.0498ZM394.229 2.0498V11.8315H396.229V2.0498H394.229ZM395.229 10.8315H376.124V12.8315H395.229V10.8315ZM444.694 14.7104L444.256 15.6094L445.694 16.31V14.7104H444.694ZM436.581 11.8315L436.318 12.7966L436.33 12.7995L436.581 11.8315ZM430.823 10.6538L430.667 11.6416L430.677 11.6431L430.823 10.6538ZM419.961 10.3267L419.874 9.33048L419.872 9.33062L419.961 10.3267ZM416.854 10.752L416.653 9.77234L416.648 9.7734L416.854 10.752ZM414.858 11.3735L415.272 12.2839L415.281 12.2799L415.289 12.2757L414.858 11.3735ZM413.222 12.7803L412.282 12.4385L412.268 12.4773L412.257 12.5172L413.222 12.7803ZM414.105 15.1685L413.497 15.9621L413.506 15.9686L413.514 15.9749L414.105 15.1685ZM416.788 16.4771L416.461 17.422L416.469 17.4249L416.477 17.4275L416.788 16.4771ZM420.747 17.5566L420.521 18.5309L420.534 18.5338L420.747 17.5566ZM425.523 18.6035L425.307 19.58L425.315 19.5816L425.322 19.5831L425.523 18.6035ZM430.757 19.7812L430.52 20.7528L430.527 20.7545L430.534 20.756L430.757 19.7812ZM435.992 21.2534L435.672 22.2009L435.675 22.2021L435.992 21.2534ZM440.801 23.249L440.348 24.1409L440.359 24.146L440.801 23.249ZM447.278 39.3774L446.381 38.9353L447.278 39.3774ZM444.203 43.3032L443.564 42.5339L443.558 42.5393L444.203 43.3032ZM439.787 45.8877L440.139 46.8236L440.15 46.8195L439.787 45.8877ZM434.487 47.3599L434.302 46.3771L434.3 46.3775L434.487 47.3599ZM428.893 48.0469L428.835 47.0485L428.835 47.0486L428.893 48.0469ZM411.161 47.0981L411.353 46.1167L411.349 46.1159L411.161 47.0981ZM401.15 44.3828H400.15V45.0752L400.798 45.3189L401.15 44.3828ZM401.15 33.6523L401.635 32.7779L400.15 31.954V33.6523H401.15ZM411.357 37.5454L411.119 38.5165L411.12 38.5168L411.357 37.5454ZM429.939 38.5596L430.1 39.5467L430.11 39.5449L429.939 38.5596ZM433.767 37.5127L434.179 38.4238L434.188 38.4198L434.197 38.4156L433.767 37.5127ZM435.141 32.8018L434.501 33.57L434.509 33.5764L434.516 33.5826L435.141 32.8018ZM432.458 31.395L432.115 32.3343L432.123 32.3372L432.131 32.34L432.458 31.395ZM428.5 30.2827L428.274 31.257L428.288 31.2599L428.5 30.2827ZM423.691 29.2686L423.487 30.2476L423.495 30.2492L423.502 30.2506L423.691 29.2686ZM413.255 26.7822L412.946 27.7334L412.953 27.7357L412.961 27.738L413.255 26.7822ZM408.479 24.9175L408.047 25.8197L408.058 25.8247L408.479 24.9175ZM404.52 22.3984L403.866 23.1547L403.874 23.1618L404.52 22.3984ZM401.837 19.0288L400.946 19.4821L400.949 19.4882L401.837 19.0288ZM404.716 5.7793L405.365 6.54054L405.366 6.53953L404.716 5.7793ZM408.838 3.29297L408.465 2.36537L408.46 2.36721L408.838 3.29297ZM429.416 1.1665L429.321 2.162L429.322 2.1621L429.416 1.1665ZM434.879 1.91895L434.699 2.90269L434.711 2.90468L434.879 1.91895ZM440.048 2.99854L439.806 3.96868L439.809 3.96941L440.048 2.99854ZM444.694 4.30713H445.694V3.57931L445.001 3.35556L444.694 4.30713ZM445.132 13.8115C444.242 13.3778 443.086 12.8964 441.675 12.3674L440.973 14.24C442.354 14.7579 443.445 15.2144 444.256 15.6094L445.132 13.8115ZM441.675 12.3674C440.24 11.8293 438.625 11.3285 436.832 10.8635L436.33 12.7995C438.069 13.2506 439.616 13.7313 440.973 14.24L441.675 12.3674ZM436.843 10.8665C435.033 10.3749 433.074 9.97481 430.969 9.66449L430.677 11.6431C432.715 11.9435 434.595 12.3285 436.318 12.7966L436.843 10.8665ZM430.979 9.66605C428.853 9.33044 426.675 9.16309 424.443 9.16309V11.1631C426.574 11.1631 428.648 11.3229 430.667 11.6416L430.979 9.66605ZM424.443 9.16309C422.68 9.16309 421.155 9.21811 419.874 9.33049L420.049 11.3228C421.254 11.2171 422.717 11.1631 424.443 11.1631V9.16309ZM419.872 9.33062C418.628 9.44178 417.552 9.5879 416.653 9.77235L417.054 11.7316C417.856 11.567 418.853 11.4296 420.05 11.3227L419.872 9.33062ZM416.648 9.7734C415.777 9.9567 415.027 10.1842 414.426 10.4714L415.289 12.2757C415.692 12.083 416.273 11.8962 417.06 11.7305L416.648 9.7734ZM414.444 10.4632C413.91 10.7059 413.437 10.9868 413.07 11.3234L414.421 12.7977C414.578 12.6545 414.846 12.4774 415.272 12.2839L414.444 10.4632ZM413.07 11.3234C412.733 11.6318 412.442 12.0001 412.282 12.4385L414.162 13.122C414.177 13.0806 414.234 12.9691 414.421 12.7977L413.07 11.3234ZM412.257 12.5172C412.174 12.8212 412.124 13.1294 412.124 13.4346H414.124C414.124 13.3471 414.139 13.2192 414.187 13.0434L412.257 12.5172ZM412.124 13.4346C412.124 14.4793 412.667 15.3254 413.497 15.9621L414.714 14.3749C414.236 14.0082 414.124 13.6984 414.124 13.4346H412.124ZM413.514 15.9749C414.278 16.5348 415.273 17.0108 416.461 17.422L417.115 15.5321C416.035 15.1581 415.242 14.7617 414.697 14.3621L413.514 15.9749ZM416.477 17.4275C417.646 17.8096 418.995 18.177 420.521 18.5308L420.972 16.5825C419.488 16.2383 418.198 15.886 417.099 15.5266L416.477 17.4275ZM420.534 18.5338C422.038 18.8607 423.629 19.2094 425.307 19.58L425.739 17.627C424.058 17.2561 422.465 16.9069 420.959 16.5795L420.534 18.5338ZM425.322 19.5831C427.01 19.9295 428.743 20.3193 430.52 20.7528L430.994 18.8097C429.195 18.3708 427.438 17.9755 425.724 17.6239L425.322 19.5831ZM430.534 20.756C432.313 21.1633 434.026 21.645 435.672 22.2009L436.312 20.306C434.599 19.7277 432.822 19.228 430.98 18.8065L430.534 20.756ZM435.675 22.2021C437.333 22.7545 438.89 23.4011 440.348 24.1409L441.253 22.3572C439.702 21.5702 438.053 20.8864 436.308 20.3047L435.675 22.2021ZM440.359 24.146C441.792 24.8524 443.036 25.6768 444.097 26.6152L445.422 25.1172C444.214 24.0491 442.819 23.1287 441.243 22.352L440.359 24.146ZM444.097 26.6152C445.138 27.5367 445.952 28.5911 446.547 29.7812L448.336 28.8868C447.623 27.4597 446.648 26.2023 445.422 25.1172L444.097 26.6152ZM446.547 29.7812C447.123 30.9317 447.423 32.2688 447.423 33.8159H449.423C449.423 32.0043 449.07 30.3534 448.336 28.8868L446.547 29.7812ZM447.423 33.8159C447.423 35.8593 447.062 37.5544 446.381 38.9353L448.175 39.8196C449.021 38.1035 449.423 36.0909 449.423 33.8159H447.423ZM446.381 38.9353C445.678 40.362 444.739 41.5579 443.564 42.5339L444.842 44.0725C446.24 42.9112 447.352 41.4899 448.175 39.8196L446.381 38.9353ZM443.558 42.5393C442.384 43.5309 441.009 44.3381 439.424 44.9559L440.15 46.8195C441.923 46.1287 443.492 45.213 444.848 44.0671L443.558 42.5393ZM439.434 44.9519C437.812 45.5629 436.101 46.0384 434.302 46.3771L434.672 48.3426C436.58 47.9834 438.403 47.4775 440.139 46.8235L439.434 44.9519ZM434.3 46.3775C432.511 46.7182 430.69 46.9419 428.835 47.0485L428.95 49.0452C430.89 48.9337 432.798 48.6995 434.674 48.3422L434.3 46.3775ZM428.835 47.0486C426.976 47.1566 425.207 47.2104 423.527 47.2104V49.2104C425.25 49.2104 427.058 49.1552 428.951 49.0452L428.835 47.0486ZM423.527 47.2104C419.133 47.2104 415.076 46.8442 411.353 46.1167L410.969 48.0796C414.836 48.8351 419.023 49.2104 423.527 49.2104V47.2104ZM411.349 46.1159C407.619 45.4044 404.339 44.5131 401.502 43.4468L400.798 45.3189C403.764 46.4335 407.157 47.3524 410.974 48.0804L411.349 46.1159ZM402.15 44.3828V33.6523H400.15V44.3828H402.15ZM400.665 34.5268C403.741 36.2332 407.229 37.5606 411.119 38.5165L411.596 36.5743C407.853 35.6545 404.535 34.3866 401.635 32.7779L400.665 34.5268ZM411.12 38.5168C415.044 39.4755 419.224 39.9521 423.658 39.9521V37.9521C419.368 37.9521 415.348 37.491 411.595 36.574L411.12 38.5168ZM423.658 39.9521C426.259 39.9521 428.412 39.8204 430.1 39.5467L429.779 37.5725C428.239 37.8222 426.205 37.9521 423.658 37.9521V39.9521ZM430.11 39.5449C431.783 39.255 433.153 38.8882 434.179 38.4238L433.355 36.6016C432.549 36.966 431.368 37.2971 429.769 37.5743L430.11 39.5449ZM434.197 38.4156C435.177 37.9488 435.994 37.381 436.469 36.6522L434.794 35.5597C434.615 35.8341 434.189 36.2041 433.337 36.6098L434.197 38.4156ZM436.469 36.6522C436.87 36.0373 437.123 35.3699 437.123 34.6665H435.123C435.123 34.8791 435.047 35.1713 434.794 35.5597L436.469 36.6522ZM437.123 34.6665C437.123 33.5911 436.614 32.6991 435.766 32.0209L434.516 33.5826C434.977 33.9512 435.123 34.3024 435.123 34.6665H437.123ZM435.781 32.0335C435.005 31.3863 433.991 30.8672 432.786 30.45L432.131 32.34C433.194 32.708 433.969 33.1267 434.501 33.57L435.781 32.0335ZM432.802 30.4558C431.615 30.0222 430.25 29.6399 428.712 29.3055L428.288 31.2599C429.759 31.5799 431.034 31.939 432.115 32.3343L432.802 30.4558ZM428.726 29.3086C427.207 28.9564 425.592 28.6158 423.88 28.2865L423.502 30.2506C425.192 30.5756 426.783 30.9111 428.274 31.2569L428.726 29.3086ZM423.894 28.2895C422.219 27.9413 420.489 27.5713 418.704 27.1795L418.275 29.133C420.067 29.5263 421.804 29.8979 423.487 30.2476L423.894 28.2895ZM418.704 27.1795C416.941 26.7927 415.223 26.3416 413.549 25.8264L412.961 27.738C414.689 28.2698 416.46 28.7347 418.275 29.133L418.704 27.1795ZM413.564 25.8311C411.92 25.2975 410.365 24.6903 408.899 24.0103L408.058 25.8247C409.601 26.5405 411.231 27.1765 412.946 27.7334L413.564 25.8311ZM408.91 24.0153C407.473 23.3281 406.227 22.5332 405.166 21.6351L403.874 23.1618C405.081 24.183 406.474 25.0674 408.047 25.8196L408.91 24.0153ZM405.174 21.6423C404.131 20.7395 403.318 19.7156 402.726 18.5694L400.949 19.4882C401.665 20.872 402.641 22.0945 403.866 23.1546L405.174 21.6423ZM402.729 18.5756C402.157 17.4505 401.856 16.1272 401.856 14.5796H399.856C399.856 16.3907 400.21 18.0336 400.946 19.4821L402.729 18.5756ZM401.856 14.5796C401.856 12.7105 402.185 11.1544 402.803 9.87963L401.003 9.00709C400.225 10.6112 399.856 12.4793 399.856 14.5796H401.856ZM402.803 9.87963C403.442 8.56039 404.296 7.45096 405.365 6.54054L404.068 5.01805C402.781 6.11414 401.759 7.44742 401.003 9.00709L402.803 9.87963ZM405.366 6.53953C406.48 5.58783 407.761 4.81331 409.217 4.21872L408.46 2.36721C406.819 3.03761 405.352 3.92063 404.067 5.01907L405.366 6.53953ZM409.212 4.22055C410.724 3.61174 412.311 3.1382 413.977 2.8009L413.58 0.8407C411.799 1.20132 410.094 1.70922 408.465 2.36538L409.212 4.22055ZM413.977 2.8009C415.658 2.46034 417.362 2.22612 419.087 2.09834L418.939 0.103806C417.131 0.237743 415.344 0.483346 413.58 0.8407L413.977 2.8009ZM419.087 2.09834C420.831 1.9691 422.486 1.90479 424.051 1.90479V-0.0952148C422.431 -0.0952148 420.727 -0.0286743 418.939 0.103806L419.087 2.09834ZM424.051 1.90479C425.762 1.90479 427.519 1.99036 429.321 2.162L429.511 0.171008C427.649 -0.00630971 425.829 -0.0952148 424.051 -0.0952148V1.90479ZM429.322 2.1621C431.148 2.33393 432.94 2.58082 434.699 2.90262L435.059 0.935268C433.242 0.602771 431.392 0.348038 429.51 0.170904L429.322 2.1621ZM434.711 2.90468C436.476 3.20602 438.174 3.56079 439.806 3.96868L440.291 2.02839C438.607 1.60751 436.86 1.24254 435.048 0.933209L434.711 2.90468ZM439.809 3.96941C441.469 4.37904 442.994 4.80896 444.386 5.2587L445.001 3.35556C443.558 2.88928 441.987 2.44681 440.288 2.02766L439.809 3.96941ZM443.694 4.30713V14.7104H445.694V4.30713H443.694Z" fill="#E4E4E4"/>
</svg>
